<svg xmlns="http://www.w3.org/2000/svg" width="164" height="25" viewBox="0 0 164 25" fill="none">
    <path d="M62.7731 5.31771V24.5H67.4169V14.256C67.4169 11.0653 69.7775 10.5253 71.8834 10.3943C71.8834 8.7022 71.8834 7.01023 71.8834 5.31809C69.7897 5.31809 68.3825 5.75251 67.4169 7.69985V5.31771H62.7731ZM47.5974 5.31771V18.8417C47.5974 22.7533 48.3271 24.5 51.3454 24.5C53.1361 24.5 54.496 23.8363 55.5577 21.8104V24.5H60.3338V5.31771H55.2257V18.5622C55.2257 19.8193 54.9603 20.2386 53.9653 20.2386C52.9705 20.2386 52.7051 19.8195 52.7051 18.5622V5.31771H47.5974ZM33.6445 0.5V24.5H45.1581V20.6265H38.8932V12.8326H45.1581V9.32939H38.8932V3.92845H45.1581V0.5H33.6445ZM79.3835 9.37611C80.207 9.37611 80.6502 9.79325 80.6502 11.2494V18.603C80.6502 20.0242 80.2849 20.4416 79.3835 20.4416C78.5927 20.4416 78.0869 20.06 78.0869 18.603V11.2494C78.0869 9.82721 78.4948 9.37611 79.3835 9.37611ZM79.3835 5.31771C74.6792 5.31771 73.3222 6.87969 73.3222 12.5674V17.2848C73.3222 22.9728 74.6792 24.5 79.3835 24.5C84.0876 24.5 85.4146 22.939 85.4146 17.2848V12.5674C85.4146 6.91365 84.0876 5.31771 79.3835 5.31771Z" fill="#ED3237"/>
    <path d="M133.866 11.2306C133.866 9.91673 134.283 9.53237 135.089 9.53237C135.93 9.53237 136.344 9.91751 136.344 11.2306V19.0527C136.344 20.3976 135.93 20.7512 135.089 20.7512C134.274 20.7512 133.866 20.3984 133.866 19.0527V11.2306ZM126.471 16.2389V12.6336C126.471 6.92779 125.045 5.31771 120.102 5.31771C115.159 5.31771 113.733 6.89304 113.733 12.6336V17.2193C113.733 22.6449 115.064 24.5 119.722 24.5C124.57 24.5 126.471 23.6598 126.471 19.3896V18.1643H121.655V18.5492C121.655 20.0194 121.194 20.4047 120.197 20.4047C119.266 20.4047 118.74 20.0194 118.74 18.5492V16.2389H126.471ZM118.74 13.1579V10.8484C118.74 9.27305 119.353 8.92323 120.283 8.92323C121.311 8.92323 121.813 9.2389 121.813 10.8484V13.1579H118.74ZM156.605 16.2389V12.6336C156.605 6.92779 155.179 5.31771 150.236 5.31771C145.294 5.31771 143.868 6.89304 143.868 12.6336V17.2193C143.868 22.6449 145.199 24.5 149.856 24.5C154.704 24.5 156.605 23.6598 156.605 19.3896V18.1643H151.789V18.5492C151.789 20.0194 151.328 20.4047 150.331 20.4047C149.401 20.4047 148.874 20.0194 148.874 18.5492V16.2389H156.605ZM148.874 13.1579V10.8484C148.874 9.27305 149.487 8.92323 150.418 8.92323C151.445 8.92323 151.947 9.2389 151.947 10.8484V13.1579H148.874ZM90.293 0.500192V24.5H94.3994V6.01831L97.5626 24.5H100.793H104.024L107.188 6.01831V24.5H111.294V0.500192H103.768L100.793 19.4357L97.8191 0.500192H90.293ZM164 0.5H159.044V24.5H164V0.5ZM133.672 22.0648C134.799 23.7951 135.925 24.5 137.695 24.5C140.559 24.5 141.428 22.8016 141.428 19.0206V11.2946C141.428 7.51356 140.495 5.78334 137.599 5.78334C135.861 5.78334 134.67 6.45626 133.866 7.83412V0.5H128.91V24.5H133.672V22.0648Z" fill="#0F62AC"/>
    <path d="M20.5764 24.5V13.7584L11.9454 5.16419V0.5L23.889 12.3927V24.5H20.5764ZM5.02734 24.5V20.389H18.8633V24.5H5.02734Z" fill="#0F62AC"/>
    <path d="M5.02568 18.6833V14.6159H14.6068V18.6833H5.02568ZM11.9438 5.16419L3.31267 13.7584V24.5H0V12.3927L11.9438 0.5V5.16419Z" fill="#ED3237"/>
</svg>